<svg xmlns="http://www.w3.org/2000/svg" viewBox="0 0 64 64" role="img" aria-label="NutriTrust AI">
  <defs>
    <linearGradient id="shield" x1="12" y1="8" x2="52" y2="58" gradientUnits="userSpaceOnUse">
      <stop stop-color="#0b8f78"/>
      <stop offset=".55" stop-color="#075e52"/>
      <stop offset="1" stop-color="#123f73"/>
    </linearGradient>
    <linearGradient id="shine" x1="19" y1="9" x2="44" y2="39" gradientUnits="userSpaceOnUse">
      <stop stop-color="#ffffff" stop-opacity=".78"/>
      <stop offset="1" stop-color="#ffffff" stop-opacity="0"/>
    </linearGradient>
    <filter id="shadow" x="6" y="5" width="52" height="57" color-interpolation-filters="sRGB" filterUnits="userSpaceOnUse">
      <feDropShadow dx="0" dy="5" stdDeviation="5" flood-color="#0f172a" flood-opacity=".22"/>
    </filter>
  </defs>
  <path
    fill="url(#shield)"
    filter="url(#shadow)"
    d="M32 5.8 51.2 13v15.1c0 13.9-8.4 24.3-19.2 30.1C21.2 52.4 12.8 42 12.8 28.1V13L32 5.8Z"
  />
  <path fill="url(#shine)" d="M32 9.4 17.1 15v11.8c0 4.6 1.1 8.7 3.1 12.3 8.8-8.8 16.3-17.8 22-27.1L32 9.4Z"/>
  <path
    fill="none"
    stroke="#ecfdf5"
    stroke-linecap="round"
    stroke-linejoin="round"
    stroke-width="5.3"
    d="m23.2 32.4 6.1 6.3 12.9-15.2"
  />
  <path
    fill="none"
    stroke="#a7f3d0"
    stroke-linecap="round"
    stroke-linejoin="round"
    stroke-opacity=".84"
    stroke-width="2.2"
    d="M20.3 17.9 32 13.5l11.7 4.4"
  />
</svg>
